<?xml version="1.0" encoding="UTF-8" standalone="no"?>
<svg
   xmlns:dc="http://purl.org/dc/elements/1.1/"
   xmlns:cc="http://creativecommons.org/ns#"
   xmlns:rdf="http://www.w3.org/1999/02/22-rdf-syntax-ns#"
   xmlns:svg="http://www.w3.org/2000/svg"
   xmlns="http://www.w3.org/2000/svg"
   xmlns:sodipodi="http://sodipodi.sourceforge.net/DTD/sodipodi-0.dtd"
   xmlns:inkscape="http://www.inkscape.org/namespaces/inkscape"
   id="bold"
   enable-background="new 0 0 24 24"
   height="512"
   viewBox="0 0 24 24"
   width="512"
   version="1.1"
   sodipodi:docname="download.svg"
   inkscape:version="1.0.2 (e86c870879, 2021-01-15)">
  <metadata
     id="metadata842">
    <rdf:RDF>
      <cc:Work
         rdf:about="">
        <dc:format>image/svg+xml</dc:format>
        <dc:type
           rdf:resource="http://purl.org/dc/dcmitype/StillImage" />
      </cc:Work>
    </rdf:RDF>
  </metadata>
  <defs
     id="defs840" />
  <sodipodi:namedview
     pagecolor="#ffffff"
     bordercolor="#666666"
     borderopacity="1"
     objecttolerance="10"
     gridtolerance="10"
     guidetolerance="10"
     inkscape:pageopacity="0"
     inkscape:pageshadow="2"
     inkscape:window-width="1920"
     inkscape:window-height="1017"
     id="namedview838"
     showgrid="false"
     inkscape:zoom="1.6601562"
     inkscape:cx="256"
     inkscape:cy="304.18824"
     inkscape:window-x="-8"
     inkscape:window-y="-8"
     inkscape:window-maximized="1"
     inkscape:current-layer="bold" />
  <path
     d="m12 16c-.205 0-.401-.084-.542-.232l-5.25-5.5c-.455-.476-.117-1.268.542-1.268h2.75v-5.75c0-.689.561-1.25 1.25-1.25h2.5c.689 0 1.25.561 1.25 1.25v5.75h2.75c.659 0 .997.792.542 1.268l-5.25 5.5c-.141.148-.337.232-.542.232z"
     id="path833" />
  <path
     d="m22.25 22h-20.5c-.965 0-1.75-.785-1.75-1.75v-.5c0-.965.785-1.75 1.75-1.75h20.5c.965 0 1.75.785 1.75 1.75v.5c0 .965-.785 1.75-1.75 1.75z"
     id="path835" />
  <path
     style="fill:#c45d0f;stroke-width:0.361981"
     d="m 249.75585,339.60031 c -2.50463,-1.10412 -11.34388,-10.10439 -60.73697,-61.84337 -31.93844,-33.45532 -58.3374,-61.59329 -58.99382,-62.87997 -3.69408,-7.241 -0.70275,-16.41128 6.70906,-20.56746 l 3.31294,-1.85775 31.47294,-0.1758 31.47294,-0.17581 v -62.79411 c 0,-68.523661 -0.1056,-66.297055 3.45455,-72.838228 2.05261,-3.771312 7.62569,-8.940155 11.72846,-10.877748 5.47329,-2.584843 8.66431,-2.823005 37.82405,-2.823005 29.15974,0 32.35076,0.238162 37.82405,2.823005 4.10277,1.937593 9.67585,7.106436 11.72846,10.877748 3.56015,6.541173 3.45455,4.314567 3.45455,72.838228 v 62.79411 l 31.47294,0.17581 31.47294,0.1758 3.31294,1.85775 c 7.42939,4.16604 10.40342,13.32591 6.68998,20.60485 -0.68157,1.33598 -26.36058,28.71138 -58.98089,62.87722 -50.916,53.32837 -58.13649,60.66709 -60.82956,61.82562 -3.95014,1.6993 -8.51057,1.69308 -12.38956,-0.0169 z"
     id="path844"
     transform="scale(0.046875)" />
  <path
     style="fill:#c45d0f;stroke-width:0.361981"
     d="M 31.783267,468.58313 C 17.834949,466.5267 5.1389585,454.93494 1.4054805,440.84745 -0.05675839,435.33 -0.05260969,418.08387 1.4122729,412.61176 3.6447983,404.2721 8.2943325,397.16103 14.627338,392.40042 c 4.944722,-3.71701 8.633085,-5.52589 14.138538,-6.93395 4.46453,-1.14184 9.038563,-1.16529 227.234124,-1.16529 219.65225,0 222.74099,0.0161 227.32229,1.18784 9.36578,2.39536 17.31941,8.09953 22.52602,16.15517 4.69148,7.25862 6.62556,16.90728 5.8811,29.33934 -0.75193,12.5568 -3.61131,19.33113 -11.44115,27.10588 -4.96877,4.93381 -8.88113,7.31123 -15.9965,9.72056 -3.206,1.08559 -10.50674,1.12438 -226.18352,1.20212 -122.57883,0.0442 -224.425064,-0.14885 -226.324973,-0.42896 z"
     id="path846"
     transform="scale(0.046875)" />
</svg>
