<?xml version="1.0" encoding="UTF-8" standalone="no"?>
<svg
   xmlns:dc="http://purl.org/dc/elements/1.1/"
   xmlns:cc="http://creativecommons.org/ns#"
   xmlns:rdf="http://www.w3.org/1999/02/22-rdf-syntax-ns#"
   xmlns:svg="http://www.w3.org/2000/svg"
   xmlns="http://www.w3.org/2000/svg"
   xmlns:sodipodi="http://sodipodi.sourceforge.net/DTD/sodipodi-0.dtd"
   xmlns:inkscape="http://www.inkscape.org/namespaces/inkscape"
   version="1.1"
   id="Capa_1"
   x="0px"
   y="0px"
   viewBox="0 0 512 512"
   style="enable-background:new 0 0 512 512;"
   xml:space="preserve"
   sodipodi:docname="message.svg"
   inkscape:version="1.0.1 (3bc2e813f5, 2020-09-07)"><metadata
     id="metadata865"><rdf:RDF><cc:Work
         rdf:about=""><dc:format>image/svg+xml</dc:format><dc:type
           rdf:resource="http://purl.org/dc/dcmitype/StillImage" /></cc:Work></rdf:RDF></metadata><defs
     id="defs863" /><sodipodi:namedview
     pagecolor="#ffffff"
     bordercolor="#666666"
     borderopacity="1"
     objecttolerance="10"
     gridtolerance="10"
     guidetolerance="10"
     inkscape:pageopacity="0"
     inkscape:pageshadow="2"
     inkscape:window-width="1366"
     inkscape:window-height="709"
     id="namedview861"
     showgrid="false"
     inkscape:zoom="1.0488281"
     inkscape:cx="308.43948"
     inkscape:cy="294.1378"
     inkscape:window-x="-8"
     inkscape:window-y="-8"
     inkscape:window-maximized="1"
     inkscape:current-layer="Capa_1" /><g
     fill="#c45d0f"
     stroke="#c45d0f"
     id="g858"
     style="stroke-width:15.1181;stroke-linecap:butt;stroke-linejoin:round;stroke-miterlimit:4;stroke-dasharray:none;paint-order:stroke fill markers"
     transform="matrix(0.96679688,0,0,0.96679688,9.128,9.281)"><path
       d="M 336,0 H 176 C 78.798,0 0,78.798 0,176 v 64 c 0,97.202 78.798,176 176,176 h 16 v 80 c 0,8.837 7.163,16 16,16 4.197,-0.018 8.22,-1.684 11.2,-4.64 L 310.56,416 H 336 c 97.202,0 176,-78.798 176,-176 V 176 C 512,78.798 433.202,0 336,0 Z m 144,240 c 0,79.529 -64.471,144 -144,144 h -32 c -4.276,0.018 -8.367,1.746 -11.36,4.8 L 224,457.44 V 400 c 0,-8.837 -7.163,-16 -16,-16 H 176 C 96.471,384 32,319.529 32,240 V 176 C 32,96.471 96.471,32 176,32 h 160 c 79.529,0 144,64.471 144,144 z"
       id="path850"
       style="stroke-width:15.1181;stroke-linecap:butt;stroke-linejoin:round;stroke-miterlimit:4;stroke-dasharray:none;paint-order:stroke fill markers" /><circle
       cx="256"
       cy="208"
       r="32"
       id="circle852"
       style="stroke-width:15.1181;stroke-linecap:butt;stroke-linejoin:round;stroke-miterlimit:4;stroke-dasharray:none;paint-order:stroke fill markers" /><circle
       cx="368"
       cy="208"
       r="32"
       id="circle854"
       style="stroke-width:15.1181;stroke-linecap:butt;stroke-linejoin:round;stroke-miterlimit:4;stroke-dasharray:none;paint-order:stroke fill markers" /><circle
       cx="144"
       cy="208"
       r="32"
       id="circle856"
       style="stroke-width:15.1181;stroke-linecap:butt;stroke-linejoin:round;stroke-miterlimit:4;stroke-dasharray:none;paint-order:stroke fill markers" /></g></svg>
