<svg xmlns="http://www.w3.org/2000/svg" viewBox="0 0 511.998 511.998"><defs/><linearGradient id="a" x1=".001" x2="512.012" y1="257.992" y2="257.992" gradientTransform="matrix(1 0 0 -1 -.001 513.984)" gradientUnits="userSpaceOnUse"><stop offset="0" stop-color="#0077b6"/><stop offset=".021" stop-color="#02579a"/><stop offset=".293" stop-color="#1954cf"/><stop offset=".554" stop-color="#2e58b4"/><stop offset=".796" stop-color="#6d55cc"/><stop offset="1" stop-color="#6e6cc8"/></linearGradient><path fill="url(#a)" d="M218.01 256c0-21.538 17.461-38.999 38.999-38.999s38.999 17.461 38.999 38.999-17.461 38.999-38.999 38.999S218.01 277.538 218.01 256zm152.996 0c0-62.858-51.139-113.997-113.997-113.997S143.012 193.141 143.012 256s51.139 113.997 113.997 113.997S371.006 318.858 371.006 256zm-39.999 0c0 40.803-33.195 73.998-73.998 73.998S183.011 296.803 183.011 256s33.195-73.998 73.998-73.998 73.998 33.196 73.998 73.998zm110.398 111.635c8.055-7.558 8.458-20.214.9-28.269-7.559-8.056-20.215-8.458-28.269-.9-34.777 32.632-90.348 71.53-157.59 71.53-97.104 0-177.605-83-209.865-132.045a39.917 39.917 0 010-43.904c32.258-49.044 112.761-132.044 209.865-132.044 97.101 0 177.112 83.08 209.081 132.17a40.017 40.017 0 010 43.652c-6.027 9.256-3.41 21.645 5.846 27.673 9.254 6.027 21.645 3.411 27.673-5.846 17.27-26.518 17.27-60.789 0-87.308-10.619-16.306-40.582-58.167-89.352-94.633-49.439-36.965-100.998-55.709-153.246-55.709-52.176 0-103.779 18.693-153.379 55.558-48.988 36.41-79.191 78.219-89.903 94.504a79.882 79.882 0 000 87.867c10.712 16.286 40.915 58.095 89.903 94.505 49.6 36.865 101.204 55.558 153.379 55.558 80.323.001 144.915-44.787 184.957-82.359z"/></svg>