<svg version="1.1" viewBox="0 0 148.7 138.19" xml:space="preserve" xmlns="http://www.w3.org/2000/svg"><style type="text/css">.st0 {fill: none;stroke: #fea47c;stroke-width: 2;stroke-miterlimit: 10;}.st1 {fill: none;stroke: #fea47c;stroke-width: 2;stroke-linecap: round;stroke-miterlimit: 5;stroke-dasharray: 40, 5, 10, 5, 80, 5;}.test {stroke: #fea47c;}</style><defs><filter id="a"><feFlood flood-color="#e63233" flood-opacity=".7" in="SourceGraphic"/><feComposite in2="SourceGraphic" operator="in"/><feGaussianBlur stdDeviation="1.2"/><feComponentTransfer result="glow1"><feFuncA slope="4" type="linear"/></feComponentTransfer><feMerge><feMergeNode in="glow1"/><feMergeNode in="SourceGraphic"/></feMerge></filter></defs><path class="st0 test" d="m73.399 33.708-39.2 69.8c-0.4 0.7 0.1 1.5 0.9 1.5h78.5c0.8 0 1.3-0.8 0.9-1.5l-39.2-69.8c-0.5-0.7-1.5-0.7-1.9 0z" filter="url(#a)"/><path class="st1 test" d="m101 97.808h-53c-0.8 0-1.2-0.8-0.9-1.5l26.5-48.8c0.4-0.7 1.4-0.7 1.8 0l26.5 48.8c0.4 0.7-0.1 1.5-0.9 1.5z" filter="url(#a)" stroke-dasharray="39.9874, 4.99843, 9.99685, 4.99843, 79.9748, 4.99843" stroke-miterlimit="5" stroke-width="1.9994"/><circle class="st0 test" cx="74.299" cy="89.208" r="2.6" filter="url(#a)"/><path class="st0 test" d="m76.499 82.808h-4.5c-0.3-6.5-0.5-13-0.8-19.5h6.1c-0.2 6.5-0.5 13-0.8 19.5z" filter="url(#a)"/></svg>