<?xml version="1.0" encoding="UTF-8" standalone="no"?>
<svg
   xmlns:dc="http://purl.org/dc/elements/1.1/"
   xmlns:cc="http://creativecommons.org/ns#"
   xmlns:rdf="http://www.w3.org/1999/02/22-rdf-syntax-ns#"
   xmlns:svg="http://www.w3.org/2000/svg"
   xmlns="http://www.w3.org/2000/svg"
   xmlns:sodipodi="http://sodipodi.sourceforge.net/DTD/sodipodi-0.dtd"
   xmlns:inkscape="http://www.inkscape.org/namespaces/inkscape"
   height="511pt"
   viewBox="-15 0 511 511.99988"
   width="511pt"
   version="1.1"
   id="svg903"
   sodipodi:docname="exit-account.svg"
   inkscape:version="1.0.1 (3bc2e813f5, 2020-09-07)">
  <metadata
     id="metadata909">
    <rdf:RDF>
      <cc:Work
         rdf:about="">
        <dc:format>image/svg+xml</dc:format>
        <dc:type
           rdf:resource="http://purl.org/dc/dcmitype/StillImage" />
      </cc:Work>
    </rdf:RDF>
  </metadata>
  <defs
     id="defs907" />
  <sodipodi:namedview
     pagecolor="#ffffff"
     bordercolor="#666666"
     borderopacity="1"
     objecttolerance="10"
     gridtolerance="10"
     guidetolerance="10"
     inkscape:pageopacity="0"
     inkscape:pageshadow="2"
     inkscape:window-width="1366"
     inkscape:window-height="709"
     id="namedview905"
     showgrid="false"
     inkscape:zoom="0.55731361"
     inkscape:cx="380.70726"
     inkscape:cy="336.66494"
     inkscape:window-x="-8"
     inkscape:window-y="-8"
     inkscape:window-maximized="1"
     inkscape:current-layer="svg903" />
  <path
     d="m330.5 15.007812v422c0 8.398438-6.597656 15-15 15h-120c-8.402344 0-15-6.601562-15-15l-180-422c0-8.402343 6.597656-14.9999995 15-14.9999995h300c8.402344 0 15 6.5976565 15 14.9999995zm0 0"
     fill="#07485e"
     id="path889"
     style="fill:#962a0f;fill-opacity:1" />
  <path
     d="m330.5 15.007812v422c0 8.398438-6.597656 15-15 15h-120c-8.402344 0-15-6.601562-15-15l-45-105v-331.9999995h180c8.402344 0 15 6.5976565 15 14.9999995zm0 0"
     fill="#03232e"
     id="path891"
     style="fill:#9a4a42;fill-opacity:1" />
  <path
     d="m202.097656 91.507812-180-90c-4.496094-2.101562-10.199218-2.101562-14.398437.601563-4.5 2.996094-7.199219 7.796875-7.199219 12.898437v422c0 6.597657 4.199219 12.300782 10.199219 14.097657l124.800781 41.703125 55.199219 18.296875c4.417969 1.769531 10.078125.769531 13.5-1.796875 3.902343-3 6.300781-7.5 6.300781-12.300782v-392c0-5.699218-3.300781-10.800781-8.402344-13.5zm0 0"
     fill="#ff8859"
     id="path893"
     style="fill:#c9670e;fill-opacity:1" />
  <path
     d="m210.5 105.007812v392c0 4.800782-2.402344 9.300782-6.300781 12.300782-3.390625 2.542968-9.039063 3.585937-13.5 1.796875l-55.199219-18.296875v-434.601563l66.597656 33.300781c5.101563 2.699219 8.402344 7.800782 8.402344 13.5zm0 0"
     fill="#ff3939"
     id="path895"
     style="fill:#c46c0f;fill-opacity:1" />
  <path
     d="m 377.13944,324.66549 c -5.26266,-2.86312 -8.54919,-8.44771 -8.54919,-14.53452 V 293.64763 H 255.33146 c -8.94526,0 -16.17983,-7.37458 -16.17983,-16.48334 v -65.93334 c 0,-9.11306 7.23457,-16.48334 16.17983,-16.48334 h 113.25879 v -16.48334 c 0,-6.08681 3.28653,-11.6714 8.54919,-14.53881 5.2458,-2.84596 11.6461,-2.52402 16.60539,0.82416 l 97.07897,65.93335 c 4.50422,3.05628 7.20508,8.20733 7.20508,13.71465 0,5.50303 -2.70086,10.65407 -7.20508,13.71036 l -97.07897,65.93334 c -5.01828,3.41257 -11.41858,3.66154 -16.60539,0.82417 z m 0,0"
     fill="#ff3939"
     id="path897"
     style="fill:#c45d0f;fill-opacity:1;stroke-width:1.08873" />
  <path
     d="m150.5 227.007812v60c0 8.398438-6.597656 15-15 15s-15-6.601562-15-15v-60c0-8.402343 6.597656-15 15-15s15 6.597657 15 15zm0 0"
     fill="#fff5f5"
     id="path899"
     style="fill:#fff56c;fill-opacity:1" />
  <path
     d="m150.5 227.007812v60c0 8.398438-6.597656 15-15 15v-90c8.402344 0 15 6.597657 15 15zm0 0"
     fill="#efe2dd"
     id="path901"
     style="fill:#efe263;fill-opacity:1" />
</svg>
