<svg xmlns="http://www.w3.org/2000/svg" width="33.90144mm" height="48.290184mm" viewBox="0 0 33.90144 48.290184" version="1.1" id="svg3205"> <defs id="defs3199"> <clipPath clipPathUnits="userSpaceOnUse" id="clipPath951"> <path d="m 85.576,421.992 -35,23.333 -2.959,-111.218 18.954,68.551 33.803,-21.076 25.905,52.673 -31.037,24.403 z" id="path949"/> </clipPath> <linearGradient x1="0" y1="0" x2="1" y2="0" gradientUnits="userSpaceOnUse" gradientTransform="matrix(83.500298,72.500275,72.500275,-83.500298,72.498448,339.04537)" spreadMethod="pad" id="linearGradient967"> <stop style="stop-opacity:1;stop-color:#ffe027" offset="0" id="stop957" /> <stop style="stop-opacity:1;stop-color:#ffe027" offset="0.209677" id="stop959" /> <stop style="stop-opacity:1;stop-color:#ffe027" offset="0.31541043" id="stop961" /> <stop style="stop-opacity:1;stop-color:#ff336d" offset="0.887097" id="stop963" /> <stop style="stop-opacity:1;stop-color:#ff336d" offset="1" id="stop965" /></linearGradient></defs><sodipodi:namedview id="base" pagecolor="#ffffff" bordercolor="#666666" borderopacity="1.0" showgrid="false"/><metadata id="metadata3202"><rdf:RDF><cc:Workrdf:about=""> <dc:format>image/svg+xml</dc:format> <dc:typerdf:resource="http://purl.org/dc/dcmitype/StillImage" /> <dc:title></dc:title></cc:Workrdf:about=></rdf:RDF></metadata><g id="layer1" transform="translate(-126.68023,-87.646575)"><gid="g3197" transform="matrix(0.35277777,0,0,-0.35277777,111.58747,252.09701)"><gtransform="translate(55.3857,334.7739)" id="g941"><path id="path943" style="fill:#414042;fill-opacity:1;fill-rule:nonzero;stroke:none" d="m 0,0 c -0.098,0 -0.197,0.007 -0.297,0.022 -0.999,0.149 -1.731,1.021 -1.704,2.031 l 2.958,111.218 c 0.02,0.728 0.433,1.388 1.079,1.723 0.647,0.334 1.424,0.292 2.03,-0.112 l 32.67,-21.78 8.953,33.959 c 0.172,0.651 0.66,1.172 1.298,1.386 0.64,0.213 1.343,0.092 1.872,-0.324 l 31.038,-24.402 c 0.742,-0.584 0.975,-1.608 0.559,-2.455 L 54.55,48.592 c -0.249,-0.508 -0.702,-0.885 -1.246,-1.041 -0.543,-0.155 -1.127,-0.073 -1.607,0.226 L 20.167,67.437 1.926,1.467 C 1.684,0.59 0.886,0 0,0" /> </gtransform=> <g id="g945"><g clip-path="url(#clipPath951)" id="g947"><g id="g953"><g id="g955"><path id="path969" style="fill:url(#linearGradient967);stroke:none" d="m 85.576,421.992 -35,23.333 -2.959,-111.218 18.954,68.551 33.803,-21.076 25.905,52.673 -31.037,24.403 z" /></g></g></g></g><g transform="translate(52.478,441.6528)" id="g979"><path id="path981" style="fill:#414042;fill-opacity:1;fill-rule:nonzero;stroke:none" d="m 0,0 -2.426,-91.236 14.592,52.775 c 0.167,0.607 0.613,1.101 1.201,1.33 0.588,0.229 1.249,0.168 1.784,-0.166 l 31.926,-19.907 24.215,49.236 -27.371,21.519 -8.89,-33.722 c -0.165,-0.624 -0.621,-1.131 -1.224,-1.36 -0.604,-0.229 -1.281,-0.153 -1.819,0.206 z m -4.859,-109.545 c -0.099,0 -0.198,0.006 -0.297,0.022 -1,0.148 -1.731,1.021 -1.704,2.031 L -3.902,3.726 c 0.019,0.727 0.433,1.387 1.079,1.722 0.646,0.334 1.424,0.292 2.03,-0.112 l 32.67,-21.78 8.953,33.959 c 0.171,0.652 0.659,1.172 1.298,1.387 0.64,0.212 1.343,0.092 1.872,-0.324 L 75.038,-5.825 c 0.742,-0.584 0.975,-1.607 0.558,-2.455 L 49.691,-60.954 c -0.25,-0.507 -0.702,-0.885 -1.246,-1.04 -0.543,-0.154 -1.128,-0.073 -1.607,0.226 l -31.531,19.66 -18.24,-65.971 c -0.243,-0.877 -1.04,-1.466 -1.926,-1.466" /></g></gid=></g></svg>