<?xml version="1.0" encoding="UTF-8" standalone="no"?>
<svg
   xmlns:dc="http://purl.org/dc/elements/1.1/"
   xmlns:cc="http://creativecommons.org/ns#"
   xmlns:rdf="http://www.w3.org/1999/02/22-rdf-syntax-ns#"
   xmlns:svg="http://www.w3.org/2000/svg"
   xmlns="http://www.w3.org/2000/svg"
   xmlns:sodipodi="http://sodipodi.sourceforge.net/DTD/sodipodi-0.dtd"
   xmlns:inkscape="http://www.inkscape.org/namespaces/inkscape"
   height="512"
   viewBox="0 0 16 16"
   width="512"
   version="1.1"
   id="svg849"
   sodipodi:docname="like.svg"
   inkscape:version="1.0.2 (e86c870879, 2021-01-15)">
  <metadata
     id="metadata855">
    <rdf:RDF>
      <cc:Work
         rdf:about="">
        <dc:format>image/svg+xml</dc:format>
        <dc:type
           rdf:resource="http://purl.org/dc/dcmitype/StillImage" />
      </cc:Work>
    </rdf:RDF>
  </metadata>
  <defs
     id="defs853" />
  <sodipodi:namedview
     pagecolor="#ffffff"
     bordercolor="#666666"
     borderopacity="1"
     objecttolerance="10"
     gridtolerance="10"
     guidetolerance="10"
     inkscape:pageopacity="0"
     inkscape:pageshadow="2"
     inkscape:window-width="1920"
     inkscape:window-height="1017"
     id="namedview851"
     showgrid="false"
     inkscape:zoom="1.6601562"
     inkscape:cx="256"
     inkscape:cy="304.18824"
     inkscape:window-x="-8"
     inkscape:window-y="-8"
     inkscape:window-maximized="1"
     inkscape:current-layer="svg849" />
  <path
     d="m0 1v8c0 .552246.447693 1 1 1h3v-10h-3c-.552307 0-1 .447693-1 1z"
     transform="translate(0 5)"
     id="path845"
     style="fill:#3b7c8e;fill-opacity:1" />
  <path
     d="m9.15332 5.02979h-2.9541c-.258301 0-.387695-.172363-.431152-.246582-.043457-.0737305-.131348-.270508-.0063477-.496094l1.0415-1.87549c.228516-.410645.251953-.893555.0649414-1.32471-.187012-.43164-.556152-.744629-1.0127-.858398l-.734375-.183594c-.178711-.0449219-.368164.0122071-.492676.150391l-3.9873 4.42969c-.413574.460449-.641113 1.0542-.641113 1.67236v5.23242c0 1.37842 1.12158 2.5 2.5 2.5l4.97412-.0004883c1.12305 0 2.11475-.756348 2.41113-1.83887l1.06738-4.89844c.03125-.13623.0473633-.275879.0473633-.415527 0-1.01807-.828613-1.84668-1.84668-1.84668z"
     transform="translate(5 .97)"
     id="path847"
     style="fill:#3b7c8e;fill-opacity:1" />
</svg>
