<svg xmlns="http://www.w3.org/2000/svg" xmlns:xlink="http://www.w3.org/1999/xlink" width="101" height="101" viewBox="0 0 21 21"><defs><linearGradient id="a"><stop offset="0" stop-color="#ce6c21"/><stop offset="1" stop-color="#457ea2"/></linearGradient><linearGradient xlink:href="#a" id="b" x1="1.615" y1="14.652" x2="19.429" y2="7.798" gradientUnits="userSpaceOnUse"/></defs><path d="M8.99 16.485c-3.413-.06-4.579-.113-5.295-.254-.485-.093-.906-.3-1.215-.601-.24-.228-.429-.575-.576-1.057-.127-.402-.176-.736-.246-1.552-.107-1.842-.133-3.347 0-5.03.11-.929.163-2.032.892-2.675a2.437 2.437 0 0 1 1.194-.575c.702-.127 3.694-.228 6.791-.228 3.09 0 6.09.1 6.792.228.562.1 1.088.401 1.398.789.665.996.676 2.235.744 3.204.028.462.028 3.083 0 3.545-.105 1.531-.19 2.073-.428 2.635-.148.354-.274.541-.492.749-.342.319-.778.531-1.25.608-2.954.212-5.462.258-8.309.214zm4.53-6.003C11.875 9.646 10.6 8.871 9 8.068c4.834 2.204 3.23 3.101 0 4.802 1.6-.876 3.17-1.679 4.526-2.394z" stroke-linecap="round" stroke-miterlimit="1" stroke-linejoin="round" style="mix-blend-mode:normal" fill-opacity=".613" stroke="url(#b)"/></svg>