<svg height="512" viewBox="0 0 128 128" width="512" xmlns="http://www.w3.org/2000/svg" xmlns:xlink="http://www.w3.org/1999/xlink"><linearGradient id="a" gradientUnits="userSpaceOnUse" x1="97.057" x2="30.943" y1="97.057" y2="30.943"><stop offset="0" stop-color="#af2828"/><stop offset="1" stop-color="#883535"/></linearGradient><path d="m98.55 53.986a1.75 1.75 0 0 1 -.308 3.473 1.844 1.844 0 0 1 -.312-.027l-1.165-.21a1.751 1.751 0 1 1 .62-3.446zm8.117 1.464a1.751 1.751 0 0 0 -.62 3.446 1.46 1.46 0 0 1 1.2 1.438v7.332a1.46 1.46 0 0 1 -1.2 1.438l-9.283 1.674a1.751 1.751 0 0 0 -1.385 1.288 32.2 32.2 0 0 1 -3.492 8.411 1.749 1.749 0 0 0 .068 1.889l5.386 7.755a1.461 1.461 0 0 1 -.166 1.869l-5.185 5.185a1.459 1.459 0 0 1 -1.868.167l-7.755-5.387a1.751 1.751 0 0 0 -1.89-.068 32.251 32.251 0 0 1 -8.41 3.492 1.748 1.748 0 0 0 -1.288 1.385l-1.674 9.283a1.461 1.461 0 0 1 -1.439 1.2h-7.332a1.461 1.461 0 0 1 -1.439-1.2l-1.674-9.283a1.748 1.748 0 0 0 -1.288-1.385 32.251 32.251 0 0 1 -8.41-3.492 1.751 1.751 0 0 0 -1.89.068l-7.755 5.387a1.461 1.461 0 0 1 -1.868-.167l-5.185-5.185a1.461 1.461 0 0 1 -.166-1.869l5.386-7.755a1.749 1.749 0 0 0 .068-1.889 32.2 32.2 0 0 1 -3.492-8.411 1.751 1.751 0 0 0 -1.385-1.288l-9.283-1.678a1.46 1.46 0 0 1 -1.2-1.438v-7.328a1.46 1.46 0 0 1 1.2-1.438l9.283-1.674a1.751 1.751 0 0 0 1.385-1.288 32.2 32.2 0 0 1 3.492-8.411 1.749 1.749 0 0 0 -.068-1.889l-5.386-7.755a1.461 1.461 0 0 1 .166-1.869l5.185-5.185a1.463 1.463 0 0 1 1.868-.167l7.755 5.387a1.751 1.751 0 0 0 1.89.068 32.251 32.251 0 0 1 8.41-3.492 1.748 1.748 0 0 0 1.288-1.385l1.679-9.283a1.461 1.461 0 0 1 1.439-1.2h7.332a1.461 1.461 0 0 1 1.439 1.2l1.674 9.283a1.748 1.748 0 0 0 1.288 1.385 32.251 32.251 0 0 1 8.41 3.492 1.751 1.751 0 0 0 1.89-.068l7.755-5.387a1.461 1.461 0 0 1 1.868.167l5.185 5.185a1.461 1.461 0 0 1 .166 1.869l-5.386 7.755a1.75 1.75 0 0 0 -.069 1.888c.166.28.252.418.313.513a4.663 4.663 0 0 1 .28.53 1.75 1.75 0 0 0 3.135-1.556c-.059-.118-.107-.215-.148-.3l4.75-6.839a4.958 4.958 0 0 0 -.567-6.34l-5.184-5.184a4.959 4.959 0 0 0 -6.34-.568l-6.853 4.762a35.752 35.752 0 0 0 -7.25-3.011l-1.477-8.2a4.96 4.96 0 0 0 -4.884-4.082h-7.332a4.96 4.96 0 0 0 -4.884 4.082l-1.477 8.2a35.752 35.752 0 0 0 -7.25 3.011l-6.848-4.757a4.959 4.959 0 0 0 -6.34.568l-5.184 5.184a4.958 4.958 0 0 0 -.567 6.34l4.756 6.848a35.728 35.728 0 0 0 -3.011 7.25l-8.2 1.477a4.958 4.958 0 0 0 -4.083 4.884v7.332a4.958 4.958 0 0 0 4.082 4.884l8.2 1.477a35.728 35.728 0 0 0 3.011 7.25l-4.756 6.848a4.958 4.958 0 0 0 .567 6.34l5.184 5.184a4.959 4.959 0 0 0 6.34.568l6.848-4.757a35.752 35.752 0 0 0 7.25 3.011l1.477 8.2a4.96 4.96 0 0 0 4.884 4.082h7.332a4.96 4.96 0 0 0 4.884-4.082l1.477-8.2a35.752 35.752 0 0 0 7.25-3.011l6.848 4.757a4.957 4.957 0 0 0 6.34-.568l5.184-5.184a4.958 4.958 0 0 0 .567-6.34l-4.755-6.848a35.728 35.728 0 0 0 3.011-7.25l8.2-1.477a4.958 4.958 0 0 0 4.083-4.884v-7.332a4.958 4.958 0 0 0 -4.087-4.884zm-32.312 22.388a17.271 17.271 0 0 1 -4.3 2.356 17.515 17.515 0 0 1 -14.287-1 1.75 1.75 0 0 0 -1.671 3.076 20.785 20.785 0 1 0 -10.879-18.27 1.75 1.75 0 0 0 3.5 0 17.284 17.284 0 1 1 27.637 13.838zm-27.4-5.18a1.749 1.749 0 0 0 -.548 2.413c.2.312.4.619.613.918a1.749 1.749 0 0 0 2.859-2.017c-.176-.251-.347-.5-.51-.766a1.751 1.751 0 0 0 -2.411-.548z" fill="url(#a)"/></svg>