<svg version="1.1" xmlns="http://www.w3.org/2000/svg" xmlns:xlink="http://www.w3.org/1999/xlink" x="0px" y="0px" viewBox="0 0 100 100" enable-background="new 0 0 100 100" xml:space="preserve"><path fill="#c45d0f" d="M77.07,98c-0.68,0-1.34-0.19-1.96-0.57L54.05,84.61c-1.22-0.74-2.62-1.14-4.05-1.14 c-1.43,0-2.83,0.39-4.05,1.14L24.89,97.43C24.27,97.81,23.61,98,22.93,98c-1.12,0-2.24-0.54-2.97-1.44c-0.73-0.89-1-2.02-0.77-3.18 l5.21-26.03c0.53-2.66-0.32-5.36-2.28-7.23L3.2,42.08c-1.11-1.06-1.48-2.57-0.99-4.03c0.49-1.45,1.68-2.41,3.19-2.58l24.8-2.78 c2.8-0.31,5.22-2.13,6.32-4.73l9.97-23.61C47.11,2.87,48.42,2,50,2c1.58,0,2.89,0.87,3.51,2.34l9.97,23.61 c1.1,2.6,3.52,4.42,6.32,4.73l24.8,2.78c1.51,0.17,2.7,1.13,3.19,2.58c0.49,1.46,0.12,2.97-0.99,4.03L77.88,60.12 c-1.96,1.87-2.81,4.57-2.28,7.23l5.21,26.03c0.23,1.16-0.04,2.29-0.77,3.18C79.31,97.46,78.19,98,77.07,98z" /><path fill="#131723" d="M50,4c0.45,0,1.25,0.14,1.66,1.12l9.97,23.61c1.38,3.27,4.42,5.55,7.94,5.94l24.8,2.78c0.99,0.11,1.38,0.82,1.51,1.23 c0.11,0.34,0.3,1.21-0.47,1.94L76.5,58.67c-2.46,2.34-3.53,5.73-2.86,9.07l5.21,26.03c0.12,0.58,0,1.09-0.36,1.52 c-0.36,0.43-0.9,0.7-1.43,0.7c-0.31,0-0.62-0.09-0.92-0.28L55.09,82.9c-1.53-0.93-3.3-1.43-5.09-1.43c-1.8,0-3.56,0.49-5.09,1.43 L23.85,95.72C23.55,95.91,23.24,96,22.93,96c-0.52,0-1.07-0.27-1.43-0.7c-0.35-0.43-0.47-0.94-0.36-1.52l5.21-26.03 c0.67-3.34-0.4-6.73-2.86-9.07L4.58,40.63c-0.77-0.74-0.59-1.6-0.47-1.94c0.14-0.41,0.52-1.12,1.51-1.23l24.8-2.78 c3.52-0.39,6.56-2.67,7.94-5.94l9.97-23.61C48.75,4.14,49.55,4,50,4 M50,0c-2.17,0-4.35,1.19-5.35,3.56l-9.97,23.61 c-0.82,1.94-2.62,3.29-4.7,3.52l-24.8,2.78c-4.91,0.55-6.94,6.63-3.36,10.05l18.92,18.04c1.45,1.38,2.09,3.42,1.7,5.39l-5.21,26.03 c-0.77,3.86,2.28,7.01,5.7,7.01c1,0,2.03-0.27,3-0.86l21.06-12.82c0.93-0.56,1.97-0.85,3.01-0.85s2.09,0.28,3.01,0.85l21.06,12.82 c0.98,0.59,2.01,0.86,3,0.86c3.43,0,6.48-3.15,5.7-7.01l-5.21-26.03c-0.39-1.97,0.25-4.01,1.7-5.39l18.92-18.04 c3.59-3.42,1.56-9.5-3.36-10.05l-24.8-2.78c-2.09-0.23-3.88-1.58-4.7-3.52L55.35,3.56C54.35,1.19,52.17,0,50,0L50,0z" /></svg>