<svg xmlns="http://www.w3.org/2000/svg"><path id="views" fill="white" d="M65.7,97.3C36.5,97.3,13.2,80,2.1,53.9c11.2-26.1,34.5-43.4,63.6-43.4c29.1,0,52.5,17.3,63.7,43.4 C118.2,80,94.8,97.3,65.7,97.3L65.7,97.3L65.7,97.3z M65.7,86.9c23.1,0,43-13.5,52.3-33c-9.3-19.5-29.2-33-52.3-33 c-23,0-42.9,13.5-52.2,33C22.7,73.4,42.6,86.9,65.7,86.9L65.7,86.9L65.7,86.9z M41.5,53.9c0-13.4,10.8-24.2,24.1-24.2 c13.4,0,24.2,10.9,24.2,24.2c0,13.4-10.9,24.2-24.2,24.2C52.3,78.1,41.5,67.2,41.5,53.9L41.5,53.9L41.5,53.9z M67.1,47.8 c0,4.2,3.3,7.6,7.6,7.6c4.1,0,7.5-3.4,7.5-7.6c0-4.1-3.3-7.5-7.5-7.5C70.5,40.3,67.1,43.6,67.1,47.8L67.1,47.8L67.1,47.8z"/>
<path id="to_top_svg" style="fill: #8012188f;" d="M282.082,76.511l-14.274-14.273c-1.902-1.906-4.093-2.856-6.57-2.856c-2.471,0-4.661,0.95-6.563,2.856L142.466,174.441 L30.262,62.241c-1.903-1.906-4.093-2.856-6.567-2.856c-2.475,0-4.665,0.95-6.567,2.856L2.856,76.515C0.95,78.417,0,80.607,0,83.082 c0,2.473,0.953,4.663,2.856,6.565l133.043,133.046c1.902,1.903,4.093,2.854,6.567,2.854s4.661-0.951,6.562-2.854L282.082,89.647 c1.902-1.903,2.847-4.093,2.847-6.565C284.929,80.607,283.984,78.417,282.082,76.511z"/>
<g id="line_view"><rect width="32" height="4" /><rect y="14" width="32" height="3" /><rect y="28" width="32" height="4" /></g>
<g id="table_view"><rect width="14" height="14" /><rect y="20" width="14" height="14" /><rect x="20" width="14" height="14" /><rect x="20" y="20" width="14" height="14" /></g>
<svg fill="#000000" xmlns="http://www.w3.org/2000/svg" viewBox="0 0 50 50" width="50px" height="50px"><path d="M 21 3 C 11.601563 3 4 10.601563 4 20 C 4 29.398438 11.601563 37 21 37 C 24.355469 37 27.460938 36.015625 30.09375 34.34375 L 42.375 46.625 L 46.625 42.375 L 34.5 30.28125 C 36.679688 27.421875 38 23.878906 38 20 C 38 10.601563 30.398438 3 21 3 Z M 21 7 C 28.199219 7 34 12.800781 34 20 C 34 27.199219 28.199219 33 21 33 C 13.800781 33 8 27.199219 8 20 C 8 12.800781 13.800781 7 21 7 Z"/></svg>

</svg>
